<?xml version="1.0" encoding="UTF-8"?>
<!DOCTYPE svg PUBLIC "-//W3C//DTD SVG 1.1//EN" "http://www.w3.org/Graphics/SVG/1.1/DTD/svg11.dtd">
<svg xmlns="http://www.w3.org/2000/svg" version="1.1" width="1140px" height="420px" style="shape-rendering:geometricPrecision; text-rendering:geometricPrecision; image-rendering:optimizeQuality; fill-rule:evenodd; clip-rule:evenodd" xmlns:xlink="http://www.w3.org/1999/xlink">
<g><path style="opacity:1" fill="#000000" d="M 85.5,31.5 C 409.5,31.5 733.5,31.5 1057.5,31.5C 1057.5,36.1667 1057.5,40.8333 1057.5,45.5C 733.5,45.5 409.5,45.5 85.5,45.5C 85.5,40.8333 85.5,36.1667 85.5,31.5 Z"/></g>
<g><path style="opacity:1" fill="#000000" d="M 148.5,81.5 C 422.167,81.5 695.833,81.5 969.5,81.5C 969.5,86.1667 969.5,90.8333 969.5,95.5C 695.833,95.5 422.167,95.5 148.5,95.5C 148.5,90.8333 148.5,86.1667 148.5,81.5 Z"/></g>
<g><path style="opacity:0.898" fill="#000000" d="M 705.5,149.5 C 730.509,146.051 747.343,156.051 756,179.5C 761.098,199.611 756.598,217.111 742.5,232C 731.434,240.052 719.1,242.718 705.5,240C 689.161,235.497 678.994,224.997 675,208.5C 668.891,180.043 679.058,160.376 705.5,149.5 Z M 708.5,156.5 C 727.16,154.647 738.326,162.981 742,181.5C 744.516,193.79 743.516,205.79 739,217.5C 729.552,234.719 716.385,238.219 699.5,228C 691.355,218.569 687.355,207.569 687.5,195C 687.535,183.792 690.702,173.625 697,164.5C 700.482,161.161 704.315,158.494 708.5,156.5 Z"/></g>
<g><path style="opacity:0.884" fill="#000000" d="M 458.5,150.5 C 461.898,150.18 465.232,150.513 468.5,151.5C 479.076,177.979 489.076,204.646 498.5,231.5C 501.127,232.092 503.794,232.425 506.5,232.5C 506.5,234.833 506.5,237.167 506.5,239.5C 496.5,239.5 486.5,239.5 476.5,239.5C 476.244,237.208 476.577,235.041 477.5,233C 480.371,232.882 483.038,232.216 485.5,231C 482.602,223.477 479.602,215.977 476.5,208.5C 466.5,207.167 456.5,207.167 446.5,208.5C 443.398,215.977 440.398,223.477 437.5,231C 440.3,232.232 443.3,232.899 446.5,233C 447.423,235.041 447.756,237.208 447.5,239.5C 438.833,239.5 430.167,239.5 421.5,239.5C 421.5,237.167 421.5,234.833 421.5,232.5C 425.808,233.265 428.642,231.598 430,227.5C 439.41,201.766 448.91,176.1 458.5,150.5 Z M 460.5,167.5 C 465.315,177.821 469.648,188.487 473.5,199.5C 465.5,200.833 457.5,200.833 449.5,199.5C 453.181,188.812 456.847,178.146 460.5,167.5 Z"/></g>
<g><path style="opacity:0.892" fill="#000000" d="M 791.5,150.5 C 801.964,149.945 812.297,150.778 822.5,153C 823.48,160.079 823.813,167.245 823.5,174.5C 820.881,174.768 818.381,174.435 816,173.5C 817.539,162.211 812.706,156.878 801.5,157.5C 787.633,158.19 782.466,165.19 786,178.5C 793.855,185.013 802.688,189.846 812.5,193C 827.097,200.791 830.931,212.291 824,227.5C 819.076,234.05 812.576,238.217 804.5,240C 793.366,241.115 782.366,240.449 771.5,238C 769.553,230.442 768.886,222.609 769.5,214.5C 772.5,214.5 775.5,214.5 778.5,214.5C 778.567,220.228 779.567,225.728 781.5,231C 789.384,233.859 797.384,234.192 805.5,232C 815.681,225.916 817.014,218.249 809.5,209C 799.786,203.143 789.786,197.809 779.5,193C 771.931,186.504 769.431,178.338 772,168.5C 775.511,159.152 782.011,153.152 791.5,150.5 Z"/></g>
<g><path style="opacity:0.884" fill="#000000" d="M 930.5,150.5 C 933.898,150.18 937.232,150.513 940.5,151.5C 951.076,177.979 961.076,204.646 970.5,231.5C 973.127,232.092 975.794,232.425 978.5,232.5C 978.5,234.833 978.5,237.167 978.5,239.5C 968.5,239.5 958.5,239.5 948.5,239.5C 948.244,237.208 948.577,235.041 949.5,233C 952.371,232.882 955.038,232.216 957.5,231C 954.602,223.477 951.602,215.977 948.5,208.5C 938.5,207.167 928.5,207.167 918.5,208.5C 915.398,215.977 912.398,223.477 909.5,231C 912.3,232.232 915.3,232.899 918.5,233C 919.423,235.041 919.756,237.208 919.5,239.5C 910.833,239.5 902.167,239.5 893.5,239.5C 893.5,237.167 893.5,234.833 893.5,232.5C 897.808,233.265 900.642,231.598 902,227.5C 911.41,201.766 920.91,176.1 930.5,150.5 Z M 932.5,167.5 C 937.315,177.821 941.648,188.487 945.5,199.5C 937.5,200.833 929.5,200.833 921.5,199.5C 925.181,188.812 928.847,178.146 932.5,167.5 Z"/></g>
<g><path style="opacity:0.916" fill="#000000" d="M 142.5,151.5 C 166.833,151.5 191.167,151.5 215.5,151.5C 215.5,158.5 215.5,165.5 215.5,172.5C 212.833,172.5 210.167,172.5 207.5,172.5C 207.341,167.889 206.675,163.389 205.5,159C 198.842,158.5 192.175,158.334 185.5,158.5C 185.333,182.502 185.5,206.502 186,230.5C 189.364,231.739 192.864,232.406 196.5,232.5C 196.5,234.5 196.5,236.5 196.5,238.5C 184.833,238.5 173.167,238.5 161.5,238.5C 161.5,236.5 161.5,234.5 161.5,232.5C 165.136,232.406 168.636,231.739 172,230.5C 172.5,206.502 172.667,182.502 172.5,158.5C 165.825,158.334 159.158,158.5 152.5,159C 151.325,163.389 150.659,167.889 150.5,172.5C 147.833,172.5 145.167,172.5 142.5,172.5C 142.5,165.5 142.5,158.5 142.5,151.5 Z"/></g>
<g><path style="opacity:0.899" fill="#000000" d="M 221.5,151.5 C 232.167,151.5 242.833,151.5 253.5,151.5C 253.5,153.5 253.5,155.5 253.5,157.5C 250.07,157.107 246.904,157.773 244,159.5C 243.5,169.828 243.334,180.161 243.5,190.5C 257.833,190.5 272.167,190.5 286.5,190.5C 286.666,180.161 286.5,169.828 286,159.5C 283.174,157.66 280.007,156.994 276.5,157.5C 276.5,155.5 276.5,153.5 276.5,151.5C 287.167,151.5 297.833,151.5 308.5,151.5C 308.5,153.5 308.5,155.5 308.5,157.5C 305.398,157.154 302.565,157.821 300,159.5C 299.333,183.5 299.333,207.5 300,231.5C 302.405,232.274 304.905,232.774 307.5,233C 308.423,235.041 308.756,237.208 308.5,239.5C 297.833,239.5 287.167,239.5 276.5,239.5C 276.201,237.396 276.534,235.396 277.5,233.5C 280.37,232.878 283.204,232.211 286,231.5C 286.5,220.172 286.667,208.838 286.5,197.5C 272.167,197.5 257.833,197.5 243.5,197.5C 243.333,208.838 243.5,220.172 244,231.5C 246.796,232.211 249.63,232.878 252.5,233.5C 253.466,235.396 253.799,237.396 253.5,239.5C 242.833,239.5 232.167,239.5 221.5,239.5C 221.201,237.396 221.534,235.396 222.5,233.5C 225.039,232.885 227.539,232.218 230,231.5C 230.667,207.5 230.667,183.5 230,159.5C 227.519,157.686 224.685,157.02 221.5,157.5C 221.5,155.5 221.5,153.5 221.5,151.5 Z"/></g>
<g><path style="opacity:0.884" fill="#000000" d="M 316.5,151.5 C 337.5,151.5 358.5,151.5 379.5,151.5C 379.5,157.833 379.5,164.167 379.5,170.5C 376.5,170.5 373.5,170.5 370.5,170.5C 370.156,166.772 369.49,163.105 368.5,159.5C 358.522,158.501 348.522,158.168 338.5,158.5C 338.5,169.167 338.5,179.833 338.5,190.5C 345.175,190.666 351.842,190.5 358.5,190C 360.567,186.519 361.567,182.686 361.5,178.5C 363.833,178.5 366.167,178.5 368.5,178.5C 368.5,188.5 368.5,198.5 368.5,208.5C 366.167,208.5 363.833,208.5 361.5,208.5C 361.406,204.864 360.739,201.364 359.5,198C 352.508,197.5 345.508,197.334 338.5,197.5C 338.5,208.833 338.5,220.167 338.5,231.5C 349.838,231.667 361.172,231.5 372.5,231C 374.515,226.421 375.515,221.588 375.5,216.5C 378.167,216.5 380.833,216.5 383.5,216.5C 383.5,224.167 383.5,231.833 383.5,239.5C 361.167,239.5 338.833,239.5 316.5,239.5C 316.5,236.833 316.5,234.167 316.5,231.5C 319.448,231.777 322.281,231.444 325,230.5C 325.667,206.833 325.667,183.167 325,159.5C 322.519,157.686 319.685,157.02 316.5,157.5C 316.5,155.5 316.5,153.5 316.5,151.5 Z"/></g>
<g><path style="opacity:0.903" fill="#000000" d="M 505.5,151.5 C 516.167,151.5 526.833,151.5 537.5,151.5C 537.5,153.5 537.5,155.5 537.5,157.5C 533.993,156.994 530.826,157.66 528,159.5C 527.333,177.167 527.333,194.833 528,212.5C 529.544,225.877 537.044,232.211 550.5,231.5C 562.943,231.896 570.109,225.896 572,213.5C 572.667,195.833 572.667,178.167 572,160.5C 569.282,158.206 566.115,157.206 562.5,157.5C 562.5,155.5 562.5,153.5 562.5,151.5C 571.833,151.5 581.167,151.5 590.5,151.5C 590.5,153.5 590.5,155.5 590.5,157.5C 586.885,157.206 583.718,158.206 581,160.5C 580.667,179.5 580.333,198.5 580,217.5C 578.768,228.487 572.935,235.653 562.5,239C 551.726,241.267 541.059,240.934 530.5,238C 519.957,233.755 514.79,225.921 515,214.5C 514.667,196.167 514.333,177.833 514,159.5C 511.519,157.686 508.685,157.02 505.5,157.5C 505.5,155.5 505.5,153.5 505.5,151.5 Z"/></g>
<g><path style="opacity:0.916" fill="#000000" d="M 593.5,151.5 C 617.833,151.5 642.167,151.5 666.5,151.5C 666.5,158.5 666.5,165.5 666.5,172.5C 663.833,172.5 661.167,172.5 658.5,172.5C 658.341,167.889 657.675,163.389 656.5,159C 649.842,158.5 643.175,158.334 636.5,158.5C 636.333,182.502 636.5,206.502 637,230.5C 640.364,231.739 643.864,232.406 647.5,232.5C 647.5,234.5 647.5,236.5 647.5,238.5C 635.833,238.5 624.167,238.5 612.5,238.5C 612.5,236.5 612.5,234.5 612.5,232.5C 616.136,232.406 619.636,231.739 623,230.5C 623.5,206.502 623.667,182.502 623.5,158.5C 616.825,158.334 610.158,158.5 603.5,159C 602.325,163.389 601.659,167.889 601.5,172.5C 598.833,172.5 596.167,172.5 593.5,172.5C 593.5,165.5 593.5,158.5 593.5,151.5 Z"/></g>
<g><path style="opacity:0.892" fill="#000000" d="M 837.5,151.5 C 853.882,151.077 870.215,151.577 886.5,153C 894.163,154.665 899.33,159.165 902,166.5C 906.238,191.607 895.572,204.94 870,206.5C 866.943,205.549 863.777,205.216 860.5,205.5C 860.334,213.507 860.5,221.507 861,229.5C 861.5,230 862,230.5 862.5,231C 865.482,231.498 868.482,231.665 871.5,231.5C 871.5,233.833 871.5,236.167 871.5,238.5C 860.5,238.5 849.5,238.5 838.5,238.5C 838.5,236.167 838.5,233.833 838.5,231.5C 841.249,231.726 843.916,231.393 846.5,230.5C 847.833,206.5 847.833,182.5 846.5,158.5C 843.579,157.593 840.579,157.26 837.5,157.5C 837.5,155.5 837.5,153.5 837.5,151.5 Z M 860.5,158.5 C 868.515,157.708 876.181,158.875 883.5,162C 890.452,168.945 892.285,177.112 889,186.5C 886.616,192.275 882.449,196.108 876.5,198C 871.177,198.499 865.844,198.666 860.5,198.5C 860.5,185.167 860.5,171.833 860.5,158.5 Z"/></g>
<g><path style="opacity:0.999" fill="#000000" d="M 43.5,289.5 C 387.167,289.5 730.833,289.5 1074.5,289.5C 1075.22,298.482 1075.55,307.482 1075.5,316.5C 731.833,316.5 388.167,316.5 44.5,316.5C 43.7817,307.518 43.4484,298.518 43.5,289.5 Z"/></g>
<g><path style="opacity:1" fill="#000000" d="M 148.5,360.5 C 422.167,360.5 695.833,360.5 969.5,360.5C 969.5,365.167 969.5,369.833 969.5,374.5C 695.833,374.5 422.167,374.5 148.5,374.5C 148.5,369.833 148.5,365.167 148.5,360.5 Z"/></g>
</svg>
