<svg xmlns="http://www.w3.org/2000/svg" width="1140" height="420" viewBox="0 0 1140 420" version="1.1"><path d="" stroke="none" fill="#080404" fill-rule="evenodd"/><path d="M 86 39 L 86 46 572 46 L 1058 46 1058 39 L 1058 32 572 32 L 86 32 86 39 M 149 89 L 149 96 559.500 96 L 970 96 970 89 L 970 82 559.500 82 L 149 82 149 89 M 702.329 151.879 C 688.407 157.039, 679.125 167.890, 675.508 183.231 C 670.173 205.857, 680.059 229.045, 698.782 237.820 C 703.945 240.240, 705.616 240.500, 716 240.500 C 726.400 240.500, 728.050 240.242, 733.253 237.804 C 748.945 230.450, 758 214.972, 758 195.500 C 758 176.016, 748.893 160.462, 733.253 153.233 C 725.448 149.626, 710.208 148.958, 702.329 151.879 M 447.450 182.750 C 427.412 236.755, 429.748 231.348, 425.895 232.625 C 423.124 233.543, 422.442 234.324, 422.187 236.875 L 421.873 240 434.937 240 L 448 240 448 237.117 C 448 234.135, 446.221 233.044, 441.309 233.014 C 440.104 233.006, 438.887 232.625, 438.604 232.168 C 438.321 231.710, 440.155 225.860, 442.680 219.168 L 447.270 207 462.004 207 L 476.738 207 481.369 219.309 C 483.916 226.079, 486 231.929, 486 232.309 C 486 232.689, 484.687 233, 483.082 233 C 478.420 233, 477 233.959, 477 237.107 L 477 240 492 240 L 507 240 507 236.969 C 507 233.924, 506.665 233.637, 501.931 232.610 C 499.564 232.097, 498.160 228.877, 484.010 191.526 L 468.657 151 463.944 151 L 459.230 151 447.450 182.750 M 791 151.876 C 782.014 154.832, 774.870 161.226, 772.985 168 C 771.463 173.469, 771.866 181.108, 773.913 185.616 C 776.299 190.870, 780.219 193.816, 792.559 199.629 C 804.819 205.404, 810.574 209.253, 813.072 213.350 C 817.137 220.017, 814.302 228.364, 806.627 232.325 C 801.430 235.007, 789.770 235.028, 784.318 232.365 C 780.529 230.514, 780.493 230.441, 779.631 222.750 L 778.762 215 774.381 215 L 770 215 770 226.370 L 770 237.740 774.750 239.120 C 777.747 239.991, 784.483 240.500, 793 240.500 C 805.086 240.500, 807.053 240.250, 811.779 238.114 C 818.566 235.047, 825.356 227.614, 826.873 221.590 C 830.085 208.834, 825.175 200.033, 811.129 193.371 C 806.933 191.381, 800.259 188.220, 796.298 186.346 C 787.192 182.037, 784.999 179.371, 785.004 172.615 C 785.012 161.463, 793.560 155.668, 806.430 158.089 C 812.808 159.289, 814.769 161.178, 815.540 166.865 C 816.595 174.649, 816.812 175, 820.567 175 L 824 175 824 164.547 L 824 154.094 820.250 152.947 C 815.620 151.530, 794.412 150.754, 791 151.876 M 919.450 182.750 C 899.412 236.755, 901.748 231.348, 897.895 232.625 C 895.124 233.543, 894.442 234.324, 894.187 236.875 L 893.873 240 906.937 240 L 920 240 920 237.117 C 920 234.135, 918.221 233.044, 913.309 233.014 C 912.104 233.006, 910.887 232.625, 910.604 232.168 C 910.321 231.710, 912.155 225.860, 914.680 219.168 L 919.270 207 934.004 207 L 948.738 207 953.369 219.309 C 955.916 226.079, 958 231.929, 958 232.309 C 958 232.689, 956.687 233, 955.082 233 C 950.420 233, 949 233.959, 949 237.107 L 949 240 964 240 L 979 240 979 236.969 C 979 233.924, 978.665 233.637, 973.931 232.610 C 971.564 232.097, 970.160 228.877, 956.010 191.526 L 940.657 151 935.944 151 L 931.230 151 919.450 182.750 M 143 162 L 143 172 146.885 172 L 150.770 172 151.481 166.250 C 151.873 163.088, 152.654 159.938, 153.219 159.250 C 153.907 158.412, 157.337 158, 163.635 158 L 173.025 158 172.762 194.750 L 172.500 231.500 167.250 232.432 C 162.380 233.298, 162 233.569, 162 236.182 L 162 239 179.500 239 L 197 239 197 236.182 C 197 233.569, 196.620 233.298, 191.750 232.432 L 186.500 231.500 186.238 194.750 L 185.975 158 195.365 158 C 201.663 158, 205.093 158.412, 205.781 159.250 C 206.346 159.938, 207.127 163.088, 207.519 166.250 L 208.230 172 212.115 172 L 216 172 216 162 L 216 152 179.500 152 L 143 152 143 162 M 222 155 C 222 157.715, 222.309 158.001, 225.250 158.015 C 227.037 158.024, 229.068 158.391, 229.763 158.832 C 230.750 159.459, 230.968 167.578, 230.763 196.035 L 230.500 232.437 226.250 233.277 C 222.404 234.038, 222 234.397, 222 237.059 L 222 240 238 240 L 254 240 254 237.045 C 254 234.408, 253.597 234.024, 250.250 233.467 C 248.188 233.125, 245.938 232.668, 245.250 232.453 C 244.312 232.160, 244 227.681, 244 214.531 L 244 197 265.500 197 L 287 197 287 214.531 C 287 227.681, 286.688 232.160, 285.750 232.453 C 285.063 232.668, 282.813 233.125, 280.750 233.467 C 277.403 234.024, 277 234.408, 277 237.045 L 277 240 293 240 L 309 240 309 237.059 C 309 234.397, 308.596 234.038, 304.750 233.277 L 300.500 232.437 300.237 196.586 C 300.049 170.959, 300.298 160.346, 301.110 159.368 C 301.734 158.616, 303.765 158, 305.622 158 C 308.709 158, 309 157.741, 309 155 L 309 152 293 152 L 277 152 277 155 C 277 157.748, 277.287 158, 280.418 158 C 287.162 158, 287 157.578, 287 175.107 L 287 191 265.500 191 L 244 191 244 175.700 C 244 165.133, 244.371 160.029, 245.200 159.200 C 245.860 158.540, 248.110 158, 250.200 158 C 253.756 158, 254 157.807, 254 155 L 254 152 238 152 L 222 152 222 155 M 317 155 C 317 157.715, 317.309 158.001, 320.250 158.015 C 322.038 158.024, 324.068 158.391, 324.763 158.832 C 325.750 159.459, 325.968 167.485, 325.763 195.567 L 325.500 231.500 321.500 232 C 317.841 232.457, 317.473 232.777, 317.187 235.750 L 316.873 239 350.437 239 L 384 239 384 227.940 L 384 216.879 380.252 217.190 C 376.505 217.500, 376.505 217.501, 375.425 223.567 C 374.831 226.903, 374.016 230.166, 373.613 230.817 C 373.097 231.652, 367.907 232, 355.941 232 L 339 232 339 214.500 L 339 197 348.878 197 C 360.133 197, 360.669 197.309, 361.635 204.351 C 362.249 208.835, 362.391 209, 365.636 209 L 369 209 369 194 L 369 179 365.636 179 C 362.391 179, 362.249 179.165, 361.635 183.649 C 360.669 190.691, 360.133 191, 348.878 191 L 339 191 339 174.500 L 339 158 353.378 158 C 363.674 158, 368.042 158.355, 368.766 159.250 C 369.321 159.938, 370.094 162.863, 370.482 165.750 L 371.188 171 375.594 171 L 380 171 380 161.500 L 380 152 348.500 152 L 317 152 317 155 M 506 155 C 506 157.715, 506.309 158.001, 509.250 158.015 C 511.038 158.024, 513.018 158.361, 513.651 158.765 C 514.464 159.284, 514.907 168.449, 515.161 190 L 515.522 220.500 518.174 226.181 C 523.225 237.001, 533.164 241.512, 550.380 240.797 C 561.946 240.318, 568.688 237.984, 573.818 232.684 C 580.198 226.091, 580.435 224.668, 580.812 190.696 L 581.153 159.892 583.642 158.946 C 585.010 158.426, 587.226 158, 588.565 158 C 590.604 158, 591 157.512, 591 155 L 591 152 577 152 L 563 152 563 155 C 563 157.512, 563.396 158, 565.435 158 C 566.774 158, 569.049 158.449, 570.491 158.997 L 573.113 159.993 572.806 188.777 C 572.503 217.276, 572.475 217.610, 569.979 222.531 C 566.474 229.438, 560.862 232.222, 550.443 232.222 C 540.182 232.222, 534.612 229.429, 531.039 222.491 C 528.523 217.605, 528.497 217.309, 528.180 189.217 C 527.944 168.332, 528.174 160.496, 529.052 159.437 C 529.714 158.640, 531.971 158, 534.122 158 C 537.764 158, 538 157.818, 538 155 L 538 152 522 152 L 506 152 506 155 M 594 162 L 594 172 597.885 172 L 601.770 172 602.481 166.250 C 602.873 163.088, 603.654 159.938, 604.219 159.250 C 604.907 158.412, 608.337 158, 614.635 158 L 624.025 158 623.762 194.750 L 623.500 231.500 618.250 232.432 C 613.380 233.298, 613 233.569, 613 236.182 L 613 239 630.500 239 L 648 239 648 236.182 C 648 233.569, 647.620 233.298, 642.750 232.432 L 637.500 231.500 637.238 194.750 L 636.975 158 646.365 158 C 652.663 158, 656.093 158.412, 656.781 159.250 C 657.346 159.938, 658.127 163.088, 658.519 166.250 L 659.230 172 663.115 172 L 667 172 667 162 L 667 152 630.500 152 L 594 152 594 162 M 838.176 154.669 C 838.468 157.220, 838.945 157.549, 843 158 L 847.500 158.500 847.500 195 L 847.500 231.500 843.250 231.807 C 839.133 232.105, 839 232.222, 839 235.557 L 839 239 855.500 239 L 872 239 872 235.552 L 872 232.105 866.750 231.802 L 861.500 231.500 861.221 218.862 L 860.942 206.223 871.721 205.853 C 881.027 205.533, 883.274 205.104, 888.161 202.712 C 899.271 197.273, 904.922 187.092, 903.640 174.825 C 902.862 167.387, 901.115 163.298, 897.004 159.295 C 890.990 153.439, 887.136 152.680, 861.176 152.236 L 837.851 151.837 838.176 154.669 M 711.326 157.110 C 705.618 158.149, 701.870 160.245, 698.155 164.477 C 690.437 173.267, 686.942 187.886, 688.922 203.094 C 691.566 223.391, 701.198 234.275, 716.439 234.187 C 729.795 234.110, 738.998 224.933, 742.557 208.144 C 746.079 191.527, 742.423 173.489, 733.642 164.162 C 727.838 157.998, 720.022 155.528, 711.326 157.110 M 861 178.225 L 861 198.737 865.214 199.302 C 872.890 200.331, 882.350 197.586, 886.347 193.169 C 892.661 186.193, 892.441 170.602, 885.940 164.246 C 882.350 160.735, 877.987 159.292, 868.228 158.385 L 861 157.713 861 178.225 M 455.720 183.276 C 452.569 192.199, 449.993 199.838, 449.995 200.250 C 449.998 200.662, 455.400 201, 462 201 C 468.600 201, 474 200.717, 474 200.372 C 474 199.522, 463.104 170.008, 462.182 168.360 C 461.744 167.578, 459.145 173.576, 455.720 183.276 M 927.720 183.276 C 924.569 192.199, 921.993 199.838, 921.995 200.250 C 921.998 200.662, 927.400 201, 934 201 C 940.600 201, 946 200.717, 946 200.372 C 946 199.522, 935.104 170.008, 934.182 168.360 C 933.744 167.578, 931.145 173.576, 927.720 183.276 M 44.007 296.750 C 44.011 300.462, 44.301 306.538, 44.652 310.250 L 45.289 317 560.645 317 L 1076 317 1076 311.151 C 1076 307.934, 1075.709 301.859, 1075.353 297.651 L 1074.707 290 559.353 290 L 44 290 44.007 296.750 M 149 368 L 149 375 559.500 375 L 970 375 970 368 L 970 361 559.500 361 L 149 361 149 368" stroke="none" fill="#040404" fill-rule="evenodd"/></svg>